<?xml version="1.0" standalone="no"?>
<!DOCTYPE svg PUBLIC "-//W3C//DTD SVG 20010904//EN"
 "http://www.w3.org/TR/2001/REC-SVG-20010904/DTD/svg10.dtd">
<svg version="1.0" xmlns="http://www.w3.org/2000/svg"
 width="512.000000pt" height="512.000000pt" viewBox="0 0 512.000000 512.000000"
 preserveAspectRatio="xMidYMid meet">
<metadata>
Created by potrace 1.11, written by Peter Selinger 2001-2013
</metadata>
<g transform="translate(0.000000,512.000000) scale(0.100000,-0.100000)"
fill="#000000" stroke="none">
<path d="M1820 4576 c-186 -65 -307 -215 -335 -416 -4 -31 -10 -68 -31 -187
l-16 -93 -357 0 c-212 0 -381 -4 -417 -11 -287 -52 -511 -240 -616 -516 -47
-124 -47 -125 -47 -1153 0 -907 1 -981 18 -1055 10 -44 28 -101 39 -127 12
-26 22 -50 22 -54 0 -18 100 -152 156 -209 99 -99 181 -149 331 -202 l78 -28
1885 -2 c2069 -3 1942 -6 2095 58 185 77 335 220 419 400 75 161 71 87 71
1209 0 553 -3 1023 -8 1045 -44 230 -210 451 -418 556 -32 16 -94 41 -136 56
l-78 27 -395 4 c-217 2 -396 5 -397 6 -3 3 -24 126 -39 221 -4 28 -8 55 -10
60 -1 6 -5 28 -8 50 -18 117 -138 273 -252 330 -116 56 -93 55 -818 55 l-671
-1 -65 -23z m1383 -401 c15 -16 28 -43 33 -73 4 -26 8 -51 10 -57 1 -5 5 -28
8 -50 4 -22 11 -69 17 -105 6 -36 13 -74 14 -85 10 -67 72 -177 130 -227 40
-35 121 -76 171 -87 30 -6 202 -11 419 -11 386 -2 416 -5 506 -51 48 -24 134
-109 158 -157 52 -102 50 -74 51 -1071 0 -817 -2 -934 -16 -982 -42 -145 -146
-246 -288 -283 -53 -14 -268 -16 -1856 -16 -1932 0 -1848 -2 -1949 50 -51 25
-135 110 -161 160 -51 99 -50 88 -49 1080 0 875 1 928 19 984 50 156 186 268
344 281 28 2 209 5 401 5 l350 1 68 27 c37 15 87 43 111 62 68 54 126 153 141
239 18 107 37 220 41 241 2 14 7 42 10 62 4 21 18 49 32 63 l25 25 617 0 617
0 26 -25z"/>
<path d="M2437 3444 c-1 -1 -22 -5 -47 -9 -25 -3 -63 -11 -85 -17 -22 -5 -49
-12 -60 -14 -11 -2 -54 -16 -95 -31 -286 -103 -537 -337 -666 -620 -20 -43
-50 -130 -67 -193 -28 -105 -31 -129 -31 -275 -1 -88 2 -178 6 -200 4 -22 11
-56 14 -75 3 -19 10 -43 15 -52 5 -10 8 -18 5 -18 -2 0 6 -28 19 -62 102 -282
282 -496 540 -642 69 -40 213 -100 270 -112 129 -29 181 -36 275 -38 74 -2
226 13 299 28 192 42 409 164 564 318 174 174 287 390 331 633 14 78 16 337 2
395 -3 14 -8 39 -12 55 -42 212 -158 422 -323 586 -186 184 -387 287 -656 334
-37 7 -292 14 -298 9z m233 -408 c101 -17 158 -35 235 -73 256 -129 420 -383
430 -668 7 -231 -66 -418 -229 -579 -105 -105 -244 -181 -386 -213 -75 -16
-338 -7 -371 13 -5 3 -18 7 -29 9 -30 6 -146 63 -197 97 -104 71 -203 186
-263 306 -57 116 -76 207 -74 362 5 309 194 579 493 700 70 29 99 36 181 46
25 3 46 7 48 9 4 4 124 -2 162 -9z"/>
<path d="M4209 3250 c-109 -31 -158 -160 -97 -256 70 -110 233 -100 294 19 18
33 20 102 5 137 -33 77 -123 122 -202 100z"/>
</g>
</svg>
